<svg width="45" height="45" viewBox="0 0 45 45" fill="none" xmlns="http://www.w3.org/2000/svg">
<path d="M5.1535 40.696C4.20556 40.696 3.43566 39.7319 3.43566 38.5449V6.45305C3.43566 5.26607 4.20556 4.30203 5.1535 4.30203C6.10144 4.30203 6.87132 3.33801 6.87132 2.15102C6.87132 0.964036 6.10144 0 5.1535 0C4.20556 0 3.43566 0.964036 3.43566 2.15102C3.43566 3.33801 2.66578 4.30203 1.71783 4.30203C0.769891 4.30203 0 5.26607 0 6.45305V38.547C0 39.734 0.769891 40.6981 1.71783 40.6981C2.66578 40.6981 3.43566 41.6619 3.43566 42.8489C3.43566 44.0359 4.20556 45 5.1535 45C6.10144 45 6.87132 44.0359 6.87132 42.8489C6.87132 41.6619 6.10144 40.6981 5.1535 40.6981V40.696Z" fill="white"/>
<path d="M39.8465 4.30203C40.7945 4.30203 41.5642 5.26607 41.5642 6.45305V38.547C41.5642 39.734 40.7945 40.6981 39.8465 40.6981C38.8985 40.6981 38.1286 41.6619 38.1286 42.8489C38.1286 44.0359 38.8985 45 39.8465 45C40.7945 45 41.5642 44.0359 41.5642 42.8489C41.5642 41.6619 42.3341 40.6981 43.2821 40.6981C44.2301 40.6981 45 39.734 45 38.547V6.45305C45 5.26607 44.2301 4.30203 43.2821 4.30203C42.3341 4.30203 41.5642 3.33801 41.5642 2.15102C41.5642 0.964036 40.7945 0 39.8465 0C38.8985 0 38.1286 0.964036 38.1286 2.15102C38.1286 3.33801 38.8985 4.30203 39.8465 4.30203Z" fill="white"/>
<path d="M13.5448 36.6394V8.3584H25.4115C29.457 8.3584 32.1195 10.8913 32.1195 15.3647C32.1195 18.616 30.6705 21.0643 27.5677 21.6546V21.9086C31.0397 22.6249 32.8267 25.2011 32.8267 28.8303C32.8267 33.7267 30.062 36.6394 25.7476 36.6394H13.5448ZM15.9386 20.6824H25.0074C28.0754 20.6824 29.7273 19.163 29.7273 15.9117C29.7273 12.6604 28.2783 11.0998 25.2102 11.0998H15.9386V20.6824ZM15.9386 33.896H25.5466C28.7497 33.896 30.4016 32.2508 30.4016 28.5349C30.4016 24.8192 28.6822 23.2586 25.5466 23.2586H15.9386V33.896Z" fill="white"/>
</svg>
